<svg width="200" height="200" fill="none" xmlns="http://www.w3.org/2000/svg"><g clip-path="url('#clip0_86_32')"><rect width="200" height="200" rx="8" fill="#7D7D7D"/><path d="M46.4 36.48v3.488h-6.464c-.48 2.944-1.088 4.544-1.888 5.376-.928.96-1.856 1.248-3.296 1.376-1.152.128-3.2.096-5.248.032-.064-1.088-.576-2.592-1.312-3.616 2.144.192 4.256.224 5.152.224.672 0 1.12-.064 1.536-.416.448-.384.864-1.312 1.216-2.976H17.664V36.48h18.944c.096-.768.192-1.6.256-2.528H26.656l-.224.928-3.872-.288c.928-3.296 1.952-8.608 2.624-12.704h-3.232v4.224h-3.776v-7.744h27.776v7.744h-3.968v-4.224H26.592l2.432.224c-.128.8-.288 1.664-.448 2.528h11.776v3.264H27.936c-.192.928-.352 1.856-.544 2.72H40.96s-.064 1.088-.128 1.6c-.128 1.6-.256 3.008-.416 4.256H46.4Zm22.528-9.184v-1.344H56.864v1.344h12.064Zm0 3.52v-1.344H56.864v1.344h12.064Zm0 3.552v-1.44H56.864v1.44h12.064Zm-8.256-10.656v-1.344h-11.2V19.2h11.2v-2.304h3.968V19.2h11.648v3.168H64.64v1.344h8.16v12.864H53.184V23.712h7.488ZM76.96 40.96h-8.544c3.2 1.088 6.752 2.4 8.928 3.328l-3.264 2.528c-2.112-1.056-5.696-2.56-9.152-3.776l2.176-2.08h-9.472l2.976 2.08c-2.528 1.504-6.496 3.04-9.664 3.808-.608-.768-1.76-1.888-2.56-2.624 3.104-.672 6.816-2.048 8.832-3.264h-8.704v-3.136H76.96v3.136Zm8.864-19.744c-.224 1.12-.384 2.976-.384 3.84-.032 2.048 0 4.448.192 6.72.448 4.576 1.408 7.68 3.392 7.68 1.504 0 2.752-3.712 3.36-6.208l3.2 3.84c-2.112 5.504-4.096 7.456-6.656 7.456-3.456 0-6.496-3.136-7.392-11.648-.288-2.912-.352-6.592-.352-8.544 0-.896-.032-2.24-.224-3.2l4.864.064Zm15.84.672c3.008 3.68 5.44 11.328 5.792 16.192l-4.192 1.6c-.48-5.088-2.176-12.544-5.632-16.448l4.032-1.344Zm36.992 15.84.544 4.448c-1.44 1.376-3.392 2.4-5.952 2.4-2.368 0-3.968-1.76-3.968-4.8 0-3.456 1.12-8.096 1.12-10.976 0-1.568-.8-2.336-2.112-2.336-2.368 0-5.824 2.912-8.384 5.76-.032.896-.064 1.76-.064 2.56 0 2.592 0 5.248.192 8.224.032.576.16 1.728.224 2.432h-4.352a31.68 31.68 0 0 0 .096-2.336c.064-2.464.064-4.288.128-6.976-1.376 2.016-2.912 4.352-4 5.856l-2.496-3.52c1.792-2.176 4.992-6.4 6.784-9.056l.128-2.208c-1.536.192-3.968.512-5.76.736l-.384-4.064c.896.032 1.632.032 2.752-.032.928-.064 2.304-.224 3.648-.416.064-1.184.128-2.08.128-2.432 0-.896.032-1.856-.128-2.816l4.64.128c-.192.896-.448 2.528-.704 4.512l1.184 1.504c-.416.544-1.088 1.568-1.632 2.4 0 .224-.032.448-.064.672 2.496-2.176 6.144-4.704 9.216-4.704 3.392 0 4.992 2.016 4.992 4.672 0 3.296-1.056 7.936-1.056 11.232 0 .832.416 1.376 1.216 1.376 1.152 0 2.656-.8 4.064-2.24Zm15.936 4.352c.672 0 1.28-.032 1.856-.096-.192-2.048-1.376-3.392-3.104-3.392-1.184 0-1.952.704-1.952 1.504 0 1.184 1.344 1.984 3.2 1.984Zm6.976-22.848 2.048 2.816c-.768.48-1.504.96-2.208 1.44-1.696 1.184-5.024 4-7.008 5.6 1.056-.288 1.952-.352 2.976-.352 5.376 0 9.472 3.36 9.472 7.968 0 4.992-3.808 8.96-11.456 8.96-4.416 0-7.744-2.016-7.744-5.184 0-2.56 2.336-4.928 5.696-4.928 3.904 0 6.272 2.4 6.752 5.408 1.728-.928 2.592-2.4 2.592-4.32 0-2.848-2.88-4.768-6.56-4.768-4.864 0-8.032 2.592-11.424 6.432l-2.88-2.976c2.24-1.824 6.048-5.056 7.936-6.592 1.76-1.472 5.056-4.128 6.624-5.504-1.632.032-5.984.224-7.648.352-.864.032-1.856.128-2.592.256l-.128-4.128c.896.096 1.984.16 2.88.16 1.664 0 8.448-.16 10.24-.32 1.312-.096 2.048-.224 2.432-.32Z" fill="#fff"/></g><defs><clipPath id="clip0_86_32"><rect width="200" height="200" rx="8" fill="#fff"/></clipPath></defs></svg>