<svg width="200" height="200" viewBox="0 0 200 200" fill="none" xmlns="http://www.w3.org/2000/svg">
<g clip-path="url(#clip0_221_297)">
<rect width="200" height="200" rx="8" fill="#7D7D7D"/>
<path d="M18.08 18.304H46.016V26.112H41.984V21.856H21.888V26.112H18.08V18.304ZM26.496 24.608H40.384V27.904H26.496V24.608ZM25.696 30.624H38.176V33.984H25.696V30.624ZM17.568 36.512H46.496V40.032H17.568V36.512ZM37.152 30.624H40.992C40.992 30.624 40.928 31.712 40.864 32.224C40.192 40.576 39.424 44.064 38.08 45.408C37.152 46.4 36.192 46.72 34.752 46.848C33.568 46.944 31.52 46.944 29.472 46.848C29.408 45.76 28.864 44.224 28.16 43.232C30.272 43.424 32.448 43.424 33.312 43.424C34.016 43.424 34.432 43.36 34.88 43.04C35.872 42.208 36.576 38.72 37.12 31.2L37.152 30.624ZM25.152 21.696L28.992 22.048C28.256 26.336 27.2 31.648 26.4 34.912L22.496 34.624C23.424 31.264 24.512 25.888 25.152 21.696ZM64.928 43.136L67.456 40.704C70.944 41.856 75.008 43.36 77.408 44.384L74.144 46.912C72 45.888 68.416 44.352 64.928 43.136ZM48.448 37.856H77.024V41.024H48.448V37.856ZM49.376 19.136H76.352V22.336H49.376V19.136ZM60.608 16.8H64.672V24.896H60.608V16.8ZM56.832 29.472V30.848H68.96V29.472H56.832ZM56.832 32.96V34.4H68.96V32.96H56.832ZM56.832 25.952V27.296H68.96V25.952H56.832ZM53.12 23.68H72.864V36.64H53.12V23.68ZM57.376 40.896L60.576 43.136C58.048 44.64 54.048 46.176 50.88 46.944C50.24 46.208 49.088 45.024 48.256 44.32C51.488 43.584 55.392 42.144 57.376 40.896ZM85.728 21.152C85.504 22.272 85.344 24.16 85.344 25.056C85.344 27.136 85.344 29.504 85.536 31.84C85.984 36.448 86.944 39.616 88.96 39.616C90.496 39.616 91.744 35.84 92.352 33.312L95.584 37.184C93.44 42.784 91.456 44.704 88.896 44.704C85.344 44.704 82.304 41.568 81.408 32.992C81.088 30.048 81.056 26.272 81.056 24.32C81.056 23.456 81.024 22.08 80.8 21.088L85.728 21.152ZM101.728 21.856C104.768 25.536 107.232 33.536 107.584 38.432L103.36 40.096C102.88 34.912 101.152 27.168 97.664 23.2L101.728 21.856ZM139.36 42.336C137.856 43.712 135.936 44.736 133.312 44.736C130.912 44.736 129.312 43.008 129.312 39.904C129.312 36.416 130.464 31.744 130.464 28.8C130.464 27.232 129.664 26.464 128.288 26.464C125.312 26.464 120.544 31.168 117.984 34.432L117.952 29.504C119.904 27.456 125.248 22.656 129.472 22.656C132.928 22.656 134.496 24.704 134.496 27.392C134.496 30.688 133.44 35.392 133.44 38.72C133.44 39.552 133.888 40.128 134.688 40.128C135.872 40.128 137.376 39.296 138.816 37.856L139.36 42.336ZM117.248 27.104C115.808 27.264 112.768 27.648 110.656 27.968L110.24 23.84C111.136 23.872 111.872 23.872 113.024 23.808C115.04 23.712 119.136 23.104 120.576 22.624L121.856 24.288C121.312 25.024 120.32 26.592 119.776 27.424L117.92 33.44C116.512 35.488 113.664 39.776 111.968 42.112L109.472 38.592C111.488 36.096 115.328 31.04 116.928 28.512L116.992 27.68L117.248 27.104ZM116.864 20.928C116.864 20.032 116.896 19.072 116.704 18.08L121.376 18.208C120.832 20.768 119.776 29.152 119.776 34.88C119.776 37.472 119.776 40.192 119.968 43.168C120 43.744 120.128 44.928 120.192 45.632H115.808C115.872 44.896 115.904 43.776 115.904 43.264C115.936 40.16 115.968 38.016 116.064 34.016C116.16 31.168 116.864 22.208 116.864 20.928ZM145.92 19.648C146.816 19.744 147.904 19.808 148.8 19.808C150.528 19.808 157.344 19.648 159.168 19.488C160.512 19.392 161.248 19.264 161.632 19.136L163.68 22.016C162.944 22.496 162.176 22.944 161.472 23.488C159.744 24.704 156.384 27.52 154.336 29.12C155.424 28.832 156.384 28.768 157.376 28.768C162.816 28.768 166.944 32.16 166.944 36.8C166.944 41.856 163.104 45.856 155.36 45.856C150.912 45.856 147.552 43.84 147.552 40.608C147.552 38.016 149.92 35.648 153.312 35.648C157.696 35.648 160.128 38.592 160.224 42.112L156.48 42.592C156.416 40.288 155.2 38.688 153.312 38.688C152.128 38.688 151.328 39.424 151.328 40.256C151.328 41.44 152.64 42.24 154.592 42.24C160 42.24 162.752 40.192 162.752 36.768C162.752 33.856 159.872 31.904 156.128 31.904C151.2 31.904 148.032 34.528 144.608 38.4L141.696 35.392C143.968 33.6 147.84 30.336 149.696 28.768C151.488 27.296 154.848 24.608 156.416 23.2C154.784 23.264 150.368 23.424 148.64 23.552C147.776 23.616 146.784 23.68 146.048 23.808L145.92 19.648Z" fill="white"/>
</g>
<defs>
<clipPath id="clip0_221_297">
<rect width="200" height="200" rx="8" fill="white"/>
</clipPath>
</defs>
</svg>
