<svg width="200" height="200" viewBox="0 0 200 200" fill="none" xmlns="http://www.w3.org/2000/svg">
<g clip-path="url(#clip0_86_32)">
<rect width="200" height="200" rx="8" fill="#7D7D7D"/>
<path d="M46.4 36.48V39.968H39.936C39.456 42.912 38.848 44.512 38.048 45.344C37.12 46.304 36.192 46.592 34.752 46.72C33.6 46.848 31.552 46.816 29.504 46.752C29.44 45.664 28.928 44.16 28.192 43.136C30.336 43.328 32.448 43.36 33.344 43.36C34.016 43.36 34.464 43.296 34.88 42.944C35.328 42.56 35.744 41.632 36.096 39.968H17.664V36.48H36.608C36.704 35.712 36.8 34.88 36.864 33.952H26.656L26.432 34.88L22.56 34.592C23.488 31.296 24.512 25.984 25.184 21.888H21.952V26.112H18.176V18.368H45.952V26.112H41.984V21.888H26.592L29.024 22.112C28.896 22.912 28.736 23.776 28.576 24.64H40.352V27.904H27.936C27.744 28.832 27.584 29.76 27.392 30.624H40.96C40.96 30.624 40.896 31.712 40.832 32.224C40.704 33.824 40.576 35.232 40.416 36.48H46.4ZM68.928 27.296V25.952H56.864V27.296H68.928ZM68.928 30.816V29.472H56.864V30.816H68.928ZM68.928 34.368V32.928H56.864V34.368H68.928ZM60.672 23.712V22.368H49.472V19.2H60.672V16.896H64.64V19.2H76.288V22.368H64.64V23.712H72.8V36.576H53.184V23.712H60.672ZM76.96 40.96H68.416C71.616 42.048 75.168 43.36 77.344 44.288L74.08 46.816C71.968 45.76 68.384 44.256 64.928 43.04L67.104 40.96H57.632L60.608 43.04C58.08 44.544 54.112 46.08 50.944 46.848C50.336 46.08 49.184 44.96 48.384 44.224C51.488 43.552 55.2 42.176 57.216 40.96H48.512V37.824H76.96V40.96ZM85.824 21.216C85.6 22.336 85.44 24.192 85.44 25.056C85.408 27.104 85.44 29.504 85.632 31.776C86.08 36.352 87.04 39.456 89.024 39.456C90.528 39.456 91.776 35.744 92.384 33.248L95.584 37.088C93.472 42.592 91.488 44.544 88.928 44.544C85.472 44.544 82.432 41.408 81.536 32.896C81.248 29.984 81.184 26.304 81.184 24.352C81.184 23.456 81.152 22.112 80.96 21.152L85.824 21.216ZM101.664 21.888C104.672 25.568 107.104 33.216 107.456 38.08L103.264 39.68C102.784 34.592 101.088 27.136 97.632 23.232L101.664 21.888ZM138.656 37.728L139.2 42.176C137.76 43.552 135.808 44.576 133.248 44.576C130.88 44.576 129.28 42.816 129.28 39.776C129.28 36.32 130.4 31.68 130.4 28.8C130.4 27.232 129.6 26.464 128.288 26.464C125.92 26.464 122.464 29.376 119.904 32.224C119.872 33.12 119.84 33.984 119.84 34.784C119.84 37.376 119.84 40.032 120.032 43.008C120.064 43.584 120.192 44.736 120.256 45.44H115.904C115.968 44.768 116 43.616 116 43.104C116.064 40.64 116.064 38.816 116.128 36.128C114.752 38.144 113.216 40.48 112.128 41.984L109.632 38.464C111.424 36.288 114.624 32.064 116.416 29.408L116.544 27.2C115.008 27.392 112.576 27.712 110.784 27.936L110.4 23.872C111.296 23.904 112.032 23.904 113.152 23.84C114.08 23.776 115.456 23.616 116.8 23.424C116.864 22.24 116.928 21.344 116.928 20.992C116.928 20.096 116.96 19.136 116.8 18.176L121.44 18.304C121.248 19.2 120.992 20.832 120.736 22.816L121.92 24.32C121.504 24.864 120.832 25.888 120.288 26.72C120.288 26.944 120.256 27.168 120.224 27.392C122.72 25.216 126.368 22.688 129.44 22.688C132.832 22.688 134.432 24.704 134.432 27.36C134.432 30.656 133.376 35.296 133.376 38.592C133.376 39.424 133.792 39.968 134.592 39.968C135.744 39.968 137.248 39.168 138.656 37.728ZM154.592 42.08C155.264 42.08 155.872 42.048 156.448 41.984C156.256 39.936 155.072 38.592 153.344 38.592C152.16 38.592 151.392 39.296 151.392 40.096C151.392 41.28 152.736 42.08 154.592 42.08ZM161.568 19.232L163.616 22.048C162.848 22.528 162.112 23.008 161.408 23.488C159.712 24.672 156.384 27.488 154.4 29.088C155.456 28.8 156.352 28.736 157.376 28.736C162.752 28.736 166.848 32.096 166.848 36.704C166.848 41.696 163.04 45.664 155.392 45.664C150.976 45.664 147.648 43.648 147.648 40.48C147.648 37.92 149.984 35.552 153.344 35.552C157.248 35.552 159.616 37.952 160.096 40.96C161.824 40.032 162.688 38.56 162.688 36.64C162.688 33.792 159.808 31.872 156.128 31.872C151.264 31.872 148.096 34.464 144.704 38.304L141.824 35.328C144.064 33.504 147.872 30.272 149.76 28.736C151.52 27.264 154.816 24.608 156.384 23.232C154.752 23.264 150.4 23.456 148.736 23.584C147.872 23.616 146.88 23.712 146.144 23.84L146.016 19.712C146.912 19.808 148 19.872 148.896 19.872C150.56 19.872 157.344 19.712 159.136 19.552C160.448 19.456 161.184 19.328 161.568 19.232Z" fill="white"/>
</g>
<defs>
<clipPath id="clip0_86_32">
<rect width="200" height="200" rx="8" fill="white"/>
</clipPath>
</defs>
</svg>
