<svg width="200" height="200" fill="none" xmlns="http://www.w3.org/2000/svg"><g clip-path="url('#clip0_221_92')"><rect width="200" height="200" rx="8" fill="#7D7D7D"/><path d="M18.08 18.304h27.936v7.808h-4.032v-4.256H21.888v4.256H18.08v-7.808Zm8.416 6.304h13.888v3.296H26.496v-3.296Zm-.8 6.016h12.48v3.36h-12.48v-3.36Zm-8.128 5.888h28.928v3.52H17.568v-3.52Zm19.584-5.888h3.84s-.064 1.088-.128 1.6c-.672 8.352-1.44 11.84-2.784 13.184-.928.992-1.888 1.312-3.328 1.44-1.184.096-3.232.096-5.28 0-.064-1.088-.608-2.624-1.312-3.616 2.112.192 4.288.192 5.152.192.704 0 1.12-.064 1.568-.384.992-.832 1.696-4.32 2.24-11.84l.032-.576Zm-12-8.928 3.84.352c-.736 4.288-1.792 9.6-2.592 12.864l-3.904-.288c.928-3.36 2.016-8.736 2.656-12.928Zm39.776 21.44 2.528-2.432c3.488 1.152 7.552 2.656 9.952 3.68l-3.264 2.528c-2.144-1.024-5.728-2.56-9.216-3.776Zm-16.48-5.28h28.576v3.168H48.448v-3.168Zm.928-18.72h26.976v3.2H49.376v-3.2ZM60.608 16.8h4.064v8.096h-4.064V16.8Zm-3.776 12.672v1.376H68.96v-1.376H56.832Zm0 3.488v1.44H68.96v-1.44H56.832Zm0-7.008v1.344H68.96v-1.344H56.832ZM53.12 23.68h19.744v12.96H53.12V23.68Zm4.256 17.216 3.2 2.24c-2.528 1.504-6.528 3.04-9.696 3.808-.64-.736-1.792-1.92-2.624-2.624 3.232-.736 7.136-2.176 9.12-3.424Zm28.352-19.744c-.224 1.12-.384 3.008-.384 3.904 0 2.08 0 4.448.192 6.784.448 4.608 1.408 7.776 3.424 7.776 1.536 0 2.784-3.776 3.392-6.304l3.232 3.872c-2.144 5.6-4.128 7.52-6.688 7.52-3.552 0-6.592-3.136-7.488-11.712-.32-2.944-.352-6.72-.352-8.672 0-.864-.032-2.24-.256-3.232l4.928.064Zm16 .704c3.04 3.68 5.504 11.68 5.856 16.576l-4.224 1.664c-.48-5.184-2.208-12.928-5.696-16.896l4.064-1.344Zm37.632 20.48c-1.504 1.376-3.424 2.4-6.048 2.4-2.4 0-4-1.728-4-4.832 0-3.488 1.152-8.16 1.152-11.104 0-1.568-.8-2.336-2.176-2.336-2.976 0-7.744 4.704-10.304 7.968l-.032-4.928c1.952-2.048 7.296-6.848 11.52-6.848 3.456 0 5.024 2.048 5.024 4.736 0 3.296-1.056 8-1.056 11.328 0 .832.448 1.408 1.248 1.408 1.184 0 2.688-.832 4.128-2.272l.544 4.48Zm-22.112-15.232c-1.44.16-4.48.544-6.592.864l-.416-4.128c.896.032 1.632.032 2.784-.032 2.016-.096 6.112-.704 7.552-1.184l1.28 1.664c-.544.736-1.536 2.304-2.08 3.136l-1.856 6.016c-1.408 2.048-4.256 6.336-5.952 8.672l-2.496-3.52c2.016-2.496 5.856-7.552 7.456-10.08l.064-.832.256-.576Zm-.384-6.176c0-.896.032-1.856-.16-2.848l4.672.128c-.544 2.56-1.6 10.944-1.6 16.672 0 2.592 0 5.312.192 8.288.032.576.16 1.76.224 2.464h-4.384c.064-.736.096-1.856.096-2.368.032-3.104.064-5.248.16-9.248.096-2.848.8-11.808.8-13.088Zm29.056-1.28c.896.096 1.984.16 2.88.16 1.728 0 8.544-.16 10.368-.32 1.344-.096 2.08-.224 2.464-.352l2.048 2.88c-.736.48-1.504.928-2.208 1.472-1.728 1.216-5.088 4.032-7.136 5.632 1.088-.288 2.048-.352 3.04-.352 5.44 0 9.568 3.392 9.568 8.032 0 5.056-3.84 9.056-11.584 9.056-4.448 0-7.808-2.016-7.808-5.248 0-2.592 2.368-4.96 5.76-4.96 4.384 0 6.816 2.944 6.912 6.464l-3.744.48c-.064-2.304-1.28-3.904-3.168-3.904-1.184 0-1.984.736-1.984 1.568 0 1.184 1.312 1.984 3.264 1.984 5.408 0 8.16-2.048 8.16-5.472 0-2.912-2.88-4.864-6.624-4.864-4.928 0-8.096 2.624-11.52 6.496l-2.912-3.008c2.272-1.792 6.144-5.056 8-6.624 1.792-1.472 5.152-4.16 6.72-5.568-1.632.064-6.048.224-7.776.352-.864.064-1.856.128-2.592.256l-.128-4.16Z" fill="#fff"/></g><defs><clipPath id="clip0_221_92"><rect width="200" height="200" rx="8" fill="#fff"/></clipPath></defs></svg>